<?xml version="1.0" encoding="UTF-8"?>
<svg width="240px" height="23px" viewBox="0 0 240 23" version="1.1" xmlns="http://www.w3.org/2000/svg" xmlns:xlink="http://www.w3.org/1999/xlink">
    <!-- Generator: Sketch 48.1 (47250) - http://www.bohemiancoding.com/sketch -->
    <title>Group 5</title>
    <desc>Created with Sketch.</desc>
    <defs></defs>
    <g id="Page-1" stroke="none" stroke-width="1" fill="none" fill-rule="evenodd">
        <g id="Group-5" fill="#000000">
            <path d="M0,0.932144062 L9.06578649,0.932144062 L9.06578649,1.50345816 L7.43097253,1.50345816 L7.43097253,11.0053138 L7.66876365,10.9451754 L16.0509007,1.50345816 L13.7027133,1.50345816 L13.7027133,0.932144062 L18.9043941,0.932144062 L18.9043941,1.50345816 L17.1209607,1.50345816 L12.0084516,7.27673752 L19.1421852,21.4092443 L20.7472753,21.4092443 L20.7472753,21.9805584 L11.2059066,21.9805584 L11.2059066,21.4092443 L12.6029294,21.4092443 L7.69848754,11.8171812 L7.43097253,11.8773195 L7.43097253,21.4092443 L9.06578649,21.4092443 L9.06578649,21.9805584 L0,21.9805584 L0,21.4092443 L1.63481396,21.4092443 L1.63481396,1.50345816 L0,1.50345816 L0,0.932144062 Z M24.9292118,4.78099696 C24.4833512,4.23974932 24.2604243,3.56821139 24.2604243,2.76636302 C24.2604243,1.96451466 24.5031669,1.30299968 24.9886596,0.781798246 C25.4741522,0.260596809 26.2122881,0 27.2030894,0 C28.1938907,0 28.9468884,0.235539424 29.462105,0.706625337 C29.9773217,1.17771125 30.2349262,1.84924918 30.2349262,2.72125928 C30.2349262,3.59326937 29.9872296,4.28986469 29.4918289,4.81106613 C28.9964283,5.33226756 28.2236149,5.59286437 27.1733655,5.59286437 C26.1231161,5.59286437 25.3750724,5.32224461 24.9292118,4.78099696 Z M22.6850581,7.66763664 L29.9674112,7.66763664 L29.9674112,21.4393134 L31.631949,21.4393134 L31.631949,21.9805584 L22.8039536,21.9805584 L22.8039536,21.4393134 L24.4387676,21.4393134 L24.4387676,8.20888158 L22.6850581,8.20888158 L22.6850581,7.66763664 Z M34.3425529,22.28125 L34.3425529,16.8988698 L34.6992396,16.8988698 C35.2144563,18.64289 35.9080068,19.8656904 36.7799119,20.5673077 C37.651817,21.268925 38.7416821,21.6197284 40.0495398,21.6197284 C42.0707745,21.6197284 43.0813766,20.9682364 43.0813766,19.6652328 C43.0813766,19.1039389 42.83368,18.6829749 42.3382794,18.4023279 C41.5654543,17.9613113 40.5746679,17.6205309 39.3658903,17.3799764 C38.0184006,17.0191446 36.8889041,16.5380428 35.9773669,15.9366565 C34.8874854,15.214993 34.3425529,14.0723762 34.3425529,12.5087719 C34.3425529,10.9451676 34.8181304,9.69730982 35.7692996,8.7651611 C36.7204689,7.83301238 37.9886755,7.36694501 39.5739576,7.36694501 C40.5449428,7.36694501 41.5456371,7.59747295 42.5760705,8.05853576 C42.952575,8.21890544 43.239903,8.29908907 43.4380633,8.29908907 C43.6362235,8.29908907 43.8046572,8.22892839 43.9433694,8.08860493 C44.0820816,7.94828146 44.2505153,7.68768465 44.4486756,7.30680668 L44.7756383,7.30680668 L44.7756383,11.9073887 L44.4189517,11.9073887 C43.4083343,9.30138148 41.8428918,7.99839744 39.722577,7.99839744 C38.7912238,7.99839744 38.0976733,8.16377618 37.6419047,8.49453863 C37.1861361,8.82530108 36.9582552,9.24125368 36.9582552,9.74240891 C36.9582552,10.043102 37.0276103,10.2786415 37.1663225,10.4490342 C37.3050347,10.619427 37.4140212,10.7447139 37.4932853,10.8248988 C37.5725494,10.9050836 37.7013516,10.9902787 37.8796958,11.0804867 C38.0580401,11.1706946 38.206658,11.2408553 38.3255542,11.2909708 C38.4444503,11.3410863 38.6277458,11.4062355 38.8754462,11.4864204 C39.1231465,11.5666052 39.306442,11.61672 39.4253381,11.6367662 C40.7728279,11.9775517 41.7437986,12.2732289 42.3382794,12.5238065 C42.9327601,12.7743841 43.4975084,13.0800842 44.0325411,13.440916 C45.1224225,14.2026719 45.6673551,15.4304838 45.6673551,17.1243885 C45.6673551,18.8182932 45.1719618,20.1012313 44.1811605,20.9732414 C43.1903593,21.8452515 41.8329818,22.28125 40.1089876,22.28125 C38.880394,22.28125 37.6914503,21.9905843 36.5421208,21.4092443 C36.3043285,21.2488746 36.1160791,21.168691 35.9773669,21.168691 C35.5414143,21.168691 35.1153761,21.5395403 34.6992396,22.28125 L34.3425529,22.28125 Z M48.6751979,22.28125 L48.6751979,16.8988698 L49.0318845,16.8988698 C49.5471012,18.64289 50.2406517,19.8656904 51.1125569,20.5673077 C51.984462,21.268925 53.0743271,21.6197284 54.3821848,21.6197284 C56.4034194,21.6197284 57.4140216,20.9682364 57.4140216,19.6652328 C57.4140216,19.1039389 57.166325,18.6829749 56.6709243,18.4023279 C55.8980993,17.9613113 54.9073129,17.6205309 53.6985353,17.3799764 C52.3510455,17.0191446 51.221549,16.5380428 50.3100118,15.9366565 C49.2201304,15.214993 48.6751979,14.0723762 48.6751979,12.5087719 C48.6751979,10.9451676 49.1507753,9.69730982 50.1019446,8.7651611 C51.0531138,7.83301238 52.3213205,7.36694501 53.9066025,7.36694501 C54.8775878,7.36694501 55.8782821,7.59747295 56.9087154,8.05853576 C57.2852199,8.21890544 57.572548,8.29908907 57.7707082,8.29908907 C57.9688685,8.29908907 58.1373022,8.22892839 58.2760144,8.08860493 C58.4147266,7.94828146 58.5831602,7.68768465 58.7813205,7.30680668 L59.1082833,7.30680668 L59.1082833,11.9073887 L58.7515966,11.9073887 C57.7409793,9.30138148 56.1755367,7.99839744 54.055222,7.99839744 C53.1238688,7.99839744 52.4303183,8.16377618 51.9745497,8.49453863 C51.5187811,8.82530108 51.2909002,9.24125368 51.2909002,9.74240891 C51.2909002,10.043102 51.3602552,10.2786415 51.4989674,10.4490342 C51.6376796,10.619427 51.7466661,10.7447139 51.8259302,10.8248988 C51.9051943,10.9050836 52.0339966,10.9902787 52.2123408,11.0804867 C52.390685,11.1706946 52.539303,11.2408553 52.6581991,11.2909708 C52.7770953,11.3410863 52.9603908,11.4062355 53.2080911,11.4864204 C53.4557914,11.5666052 53.6390869,11.61672 53.7579831,11.6367662 C55.1054728,11.9775517 56.0764435,12.2732289 56.6709243,12.5238065 C57.2654051,12.7743841 57.8301533,13.0800842 58.365186,13.440916 C59.4550675,14.2026719 60,15.4304838 60,17.1243885 C60,18.8182932 59.5046068,20.1012313 58.5138055,20.9732414 C57.5230042,21.8452515 56.1656268,22.28125 54.4416325,22.28125 C53.2130389,22.28125 52.0240952,21.9905843 50.8747657,21.4092443 C50.6369734,21.2488746 50.448724,21.168691 50.3100118,21.168691 C49.8740592,21.168691 49.4480211,21.5395403 49.0318845,22.28125 L48.6751979,22.28125 Z" id="Kiss" opacity="0.870000005"></path>
            <path d="M71.445683,15.9820439 L71.445683,13.3954133 C71.445683,11.4275355 71.3423193,9.99222352 71.1355888,9.08943422 C70.9288583,8.18664493 70.4514164,7.73525706 69.7032489,7.73525706 C69.2700993,7.73525706 68.9206316,7.8620514 68.6548352,8.1156439 C68.3890389,8.3692364 68.1970777,8.79019363 68.078946,9.37852823 C67.9017484,10.2914612 67.813151,11.6811273 67.813151,13.547568 L67.813151,15.921182 C67.813151,18.1325085 67.877138,19.4613133 68.0051141,19.9076361 C68.1330901,20.3539589 68.2659863,20.7191266 68.4038066,21.0031502 C68.6203814,21.4900478 69.0436803,21.7334929 69.6737161,21.7334929 C70.4415723,21.7334929 70.9436245,21.2770333 71.179888,20.3641003 C71.3570855,19.7149035 71.445683,18.2542326 71.445683,15.9820439 Z M64.0329551,20.3336694 C62.7728835,19.0352758 62.1428571,17.1739348 62.1428571,14.7495905 C62.1428571,12.3252462 62.8171822,10.4588334 64.1658526,9.15029612 C65.514523,7.84175883 67.4095241,7.1875 69.8509128,7.1875 C72.2923016,7.1875 74.1134715,7.79104109 75.3144772,8.99814138 C76.515483,10.2052417 77.1159768,12.0462956 77.1159768,14.5213584 C77.1159768,19.6946453 74.6155597,22.28125 69.6146506,22.28125 C67.1535732,22.28125 65.2930267,21.6320629 64.0329551,20.3336694 Z M89.2301099,8.34387601 C88.501631,8.34387601 87.8617604,8.8307663 87.3104791,9.80456149 C86.7591978,10.7783567 86.4835613,11.9347211 86.4835613,13.2736895 L86.4835613,21.4291835 L88.5803887,21.4291835 L88.5803887,21.9769405 L79.3661612,21.9769405 L79.3661612,21.4291835 L80.9904641,21.4291835 L80.9904641,8.03956653 L79.3661612,8.03956653 L79.3661612,7.49180948 L86.4835613,7.49180948 L86.4835613,10.4131804 C86.7395133,9.37852305 87.2317214,8.58225455 87.9602003,8.02435106 C88.6886792,7.46644756 89.5155888,7.1875 90.4409538,7.1875 C91.3663189,7.1875 92.1193973,7.45630402 92.7002115,7.99392011 C93.2810258,8.53153621 93.5714286,9.29230229 93.5714286,10.2762412 C93.5714286,11.2601801 93.354857,12.0158744 92.9217074,12.5433468 C92.4885578,13.0708192 91.8240769,13.3345514 90.9282447,13.3345514 C90.0324126,13.3345514 89.3728537,13.030245 88.9495484,12.421623 C88.5262431,11.813001 88.4721002,10.9710865 88.7871181,9.89585433 L89.8502982,9.89585433 C90.3425137,8.86119694 90.1357863,8.34387601 89.2301099,8.34387601 Z" id="or" opacity="0.300000012"></path>
            <path d="M96.4285714,1.51315789 L105.175279,1.51315789 C108.170198,1.51315789 110.401479,1.9519693 111.869187,2.82960526 C113.336896,3.70724123 114.07074,5.27586589 114.07074,7.53552632 C114.07074,10.0372932 113.178227,11.762276 111.393176,12.7105263 C109.727128,13.5780745 107.39668,14.0118421 104.40176,14.0118421 L104.163755,14.0118421 L104.163755,22.1223684 L107.882593,22.1223684 L107.882593,22.6973684 L96.4285714,22.6973684 L96.4285714,22.1223684 L98.3623673,22.1223684 L98.3623673,2.08815789 L96.4285714,2.08815789 L96.4285714,1.51315789 Z M104.163755,2.08815789 L104.163755,13.4368421 L104.78852,13.4368421 C105.978554,13.4368421 106.801648,13.0232498 107.257828,12.1960526 C107.714008,11.3688555 107.942094,10.0272023 107.942094,8.17105263 L107.942094,6.71842105 C107.942094,5.0035002 107.728883,3.80307361 107.302454,3.11710526 C106.876025,2.43113692 106.097556,2.08815789 104.967024,2.08815789 L104.163755,2.08815789 Z M133.830943,22.6973684 L127.047782,22.6973684 L126.720524,20.4881579 C126.403182,21.2951795 125.932134,21.915568 125.307366,22.3493421 C124.682598,22.7831162 123.755377,23 122.525675,23 C119.45142,23 117.914316,21.3153677 117.914316,17.9460526 L117.914316,8.83684211 L116.248276,8.83684211 L116.248276,8.29210526 L123.447947,8.29210526 L123.447947,18.6723684 C123.447947,19.8829008 123.53224,20.6798226 123.700828,21.0631579 C123.869416,21.4464931 124.206587,21.6381579 124.712352,21.6381579 C125.218116,21.6381579 125.669331,21.3254417 126.066009,20.7 C126.462687,20.0745583 126.661023,19.2070231 126.661023,18.0973684 L126.661023,8.83684211 L125.292491,8.83684211 L125.292491,8.29210526 L132.194654,8.29210526 L132.194654,22.1526316 L133.830943,22.1526316 L133.830943,22.6973684 Z M145.588207,22.6973684 L145.588207,22.1526316 L146.956739,22.1526316 L143.594909,15.1315789 L143.029646,15.2828947 L143.029646,22.1526316 L144.398178,22.1526316 L144.398178,22.6973684 L135.859726,22.6973684 L135.859726,22.1526316 L137.496015,22.1526316 L137.496015,0.544736842 L135.740723,0.544736842 L135.740723,0 L143.029646,0 L143.029646,14.6776316 L143.505657,14.4960526 L150.199566,8.83684211 L147.403,8.83684211 L147.403,8.29210526 L153.263889,8.29210526 L153.263889,8.83684211 L151.181339,8.83684211 L147.641005,11.8934211 L152.787877,22.1526316 L153.858903,22.1526316 L153.858903,22.6973684 L145.588207,22.6973684 Z M157.062839,20.9875 C155.783552,19.6458266 155.143918,17.7796172 155.143918,15.3888158 C155.143918,12.9980144 155.862886,11.1671116 157.300844,9.89605263 C158.738802,8.62499364 160.568452,7.98947368 162.789849,7.98947368 C167.292145,7.98947368 169.454008,10.2894507 169.275503,14.8894737 L160.885804,14.8894737 L160.885804,16.0697368 C160.885804,18.0469397 161.133724,19.5399072 161.629572,20.5486842 C162.125419,21.5574612 162.988181,22.0618421 164.217883,22.0618421 C166.518616,22.0618421 168.02597,20.8109774 168.73999,18.3092105 L169.275503,18.4 C168.898659,19.8526388 168.219358,20.9824521 167.23758,21.7894737 C166.255802,22.5964953 164.783156,23 162.8196,23 C160.261027,23 158.342125,22.3291734 157.062839,20.9875 Z M160.915555,14.2842105 L163.979878,14.2842105 L163.979878,12.8013158 C163.979878,11.1670971 163.885668,10.0524153 163.697246,9.45723684 C163.508824,8.86205843 163.131985,8.56447368 162.566719,8.56447368 C162.001453,8.56447368 161.584947,8.88223366 161.317189,9.51776316 C161.049432,10.1532927 160.915555,11.2477992 160.915555,12.8013158 L160.915555,14.2842105 Z" id="Puke" opacity="0.870000005"></path>
            <path d="M173.497711,21.5052608 C173.070664,20.9879321 172.857143,20.3590322 172.857143,19.6185421 C172.857143,18.878052 173.080595,18.2542238 173.527505,17.7470388 C173.974416,17.2398538 174.605047,16.9862651 175.419417,16.9862651 C176.233787,16.9862651 176.879315,17.1992796 177.35602,17.625315 C177.832724,18.0513504 178.071073,18.6903939 178.071073,19.5424647 C178.071073,20.3945355 177.847621,21.0640097 177.400711,21.5509073 C176.9538,22.0378049 176.298341,22.28125 175.434314,22.28125 C174.570287,22.28125 173.924759,22.0225895 173.497711,21.5052608 Z M188.891997,7.73525706 C188.018039,7.73525706 187.392374,8.22214735 187.014982,9.19594254 C186.637591,10.1697377 186.448899,11.7825618 186.448899,14.0344632 L186.448899,15.6168725 C186.448899,17.6253251 186.667385,19.0657088 187.104364,19.938067 C187.541343,20.8104252 188.34577,21.2465978 189.517669,21.2465978 C190.689568,21.2465978 191.6231,20.8408559 192.318294,20.0293599 C193.013489,19.2178639 193.460392,18.294801 193.659019,17.2601436 L194.195309,17.3210055 C193.817918,19.0657219 193.122734,20.3235219 192.109737,21.094443 C191.076877,21.8856516 189.656716,22.28125 187.849211,22.28125 C185.545139,22.28125 183.777386,21.6472783 182.545899,20.3793158 C181.314413,19.1113533 180.698678,17.255084 180.698678,14.8104524 C180.698678,12.3658207 181.398828,10.4841926 182.799148,9.16551159 C184.199467,7.8468306 186.150947,7.1875 188.653646,7.1875 C190.421426,7.1875 191.772068,7.5374524 192.705615,8.23736769 C193.639161,8.93728299 194.105928,9.81469987 194.105928,10.8696447 C194.105928,11.9245894 193.882476,12.6954991 193.435565,13.1823967 C192.988655,13.6692943 192.37292,13.9127394 191.588344,13.9127394 C190.803768,13.9127394 190.173137,13.6997249 189.696432,13.2736895 C189.219728,12.8476541 188.981379,12.2187542 188.981379,11.3869708 C188.981379,11.0217976 189.031035,10.6566299 189.130348,10.2914567 L190.113547,10.2914567 C190.252586,9.88570866 190.322104,9.52054094 190.322104,9.19594254 C190.322104,8.22214735 189.845406,7.73525706 188.891997,7.73525706 Z M205.999432,15.9820439 L205.999432,13.3954133 C205.999432,11.4275355 205.895154,9.99222352 205.686596,9.08943422 C205.478038,8.18664493 204.996375,7.73525706 204.241592,7.73525706 C203.804613,7.73525706 203.452056,7.8620514 203.183909,8.1156439 C202.915763,8.3692364 202.722105,8.79019363 202.602929,9.37852823 C202.424164,10.2914612 202.334784,11.6811273 202.334784,13.547568 L202.334784,15.921182 C202.334784,18.1325085 202.399336,19.4613133 202.528444,19.9076361 C202.657551,20.3539589 202.791623,20.7191266 202.930661,21.0031502 C203.149151,21.4900478 203.576192,21.7334929 204.211799,21.7334929 C204.986443,21.7334929 205.492935,21.2770333 205.731287,20.3641003 C205.910051,19.7149035 205.999432,18.2542326 205.999432,15.9820439 Z M198.521166,20.3336694 C197.249954,19.0352758 196.614357,17.1739348 196.614357,14.7495905 C196.614357,12.3252462 197.294644,10.4588334 198.655239,9.15029612 C200.015833,7.84175883 201.927588,7.1875 204.390562,7.1875 C206.853536,7.1875 208.690807,7.79104109 209.902431,8.99814138 C211.114055,10.2052417 211.719858,12.0462956 211.719858,14.5213584 C211.719858,19.6946453 209.197334,22.28125 204.152211,22.28125 C201.669374,22.28125 199.792378,21.6320629 198.521166,20.3336694 Z M213.989937,7.49180948 L221.170264,7.49180948 L221.170264,10.2914567 C221.825732,8.22214187 223.270721,7.1875 225.505274,7.1875 C227.739827,7.1875 229.095435,8.28300316 229.57214,10.4740423 C230.267334,8.28300316 231.72722,7.1875 233.951841,7.1875 C236.871656,7.1875 238.331542,8.88147248 238.331542,12.2694682 L238.331542,21.4291835 L240,21.4291835 L240,21.9769405 L231.747093,21.9769405 L231.747093,21.4291835 L232.789879,21.4291835 L232.789879,11.5391255 C232.789879,9.99728312 232.660774,9.09450737 232.402559,8.83077117 C232.283383,8.70904677 232.124484,8.64818548 231.925857,8.64818548 C231.349839,8.64818548 230.843348,9.04378385 230.406368,9.83499244 C229.969389,10.626201 229.750903,11.6304123 229.750903,12.8476562 L229.750903,21.4291835 L230.823483,21.4291835 L230.823483,21.9769405 L223.166454,21.9769405 L223.166454,21.4291835 L224.20924,21.4291835 L224.20924,11.5391255 C224.20924,9.99728312 224.080134,9.09450737 223.821919,8.83077117 C223.702743,8.70904677 223.543844,8.64818548 223.345217,8.64818548 C222.789062,8.64818548 222.287537,9.07928626 221.840626,9.94150076 C221.393715,10.8037152 221.170264,11.8332853 221.170264,13.0302419 L221.170264,21.4291835 L222.242843,21.4291835 L222.242843,21.9769405 L213.989937,21.9769405 L213.989937,21.4291835 L215.628601,21.4291835 L215.628601,8.03956653 L213.989937,8.03956653 L213.989937,7.49180948 Z" id=".com" opacity="0.300000012"></path>
        </g>
    </g>
</svg>